<svg xmlns="http://www.w3.org/2000/svg" xmlns:xlink="http://www.w3.org/1999/xlink" width="128" zoomAndPan="magnify" viewBox="0 0 96 44.999999" height="60" preserveAspectRatio="xMidYMid meet" version="1.0"><defs><g/><clipPath id="0a04d68384"><path d="M 89.550781 7.828125 L 96 7.828125 L 96 14.578125 L 89.550781 14.578125 Z M 89.550781 7.828125 " clip-rule="nonzero"/></clipPath></defs><g fill="#ffffff" fill-opacity="1"><g transform="translate(1.480652, 29.015878)"><g><path d="M 5.640625 -0.71875 C 5.640625 -0.46875 5.582031 -0.285156 5.46875 -0.171875 C 5.351562 -0.0546875 5.171875 0 4.921875 0 L 1.90625 0 C 1.65625 0 1.472656 -0.0546875 1.359375 -0.171875 C 1.242188 -0.285156 1.1875 -0.46875 1.1875 -0.71875 L 1.1875 -2.84375 C 1.1875 -3.445312 1.238281 -3.898438 1.34375 -4.203125 C 1.457031 -4.515625 1.660156 -4.875 1.953125 -5.28125 L 3.5625 -7.453125 L 1.953125 -9.609375 C 1.640625 -10.023438 1.429688 -10.382812 1.328125 -10.6875 C 1.234375 -10.988281 1.1875 -11.441406 1.1875 -12.046875 L 1.1875 -13.578125 C 1.1875 -13.835938 1.242188 -14.019531 1.359375 -14.125 C 1.472656 -14.238281 1.65625 -14.296875 1.90625 -14.296875 L 4.96875 -14.296875 C 5.21875 -14.296875 5.398438 -14.238281 5.515625 -14.125 C 5.628906 -14.019531 5.6875 -13.835938 5.6875 -13.578125 L 5.6875 -12.21875 C 5.6875 -12.082031 5.691406 -11.941406 5.703125 -11.796875 C 5.710938 -11.648438 5.765625 -11.507812 5.859375 -11.375 L 6.734375 -10.125 C 6.796875 -10.019531 6.863281 -9.9375 6.9375 -9.875 C 7.007812 -9.820312 7.097656 -9.796875 7.203125 -9.796875 L 7.453125 -9.796875 C 7.554688 -9.796875 7.640625 -9.820312 7.703125 -9.875 C 7.773438 -9.9375 7.847656 -10.019531 7.921875 -10.125 L 8.8125 -11.375 C 8.90625 -11.507812 8.957031 -11.648438 8.96875 -11.796875 C 8.988281 -11.941406 9 -12.082031 9 -12.21875 L 9 -13.578125 C 9 -13.835938 9.050781 -14.019531 9.15625 -14.125 C 9.269531 -14.238281 9.457031 -14.296875 9.71875 -14.296875 L 12.734375 -14.296875 C 12.984375 -14.296875 13.160156 -14.238281 13.265625 -14.125 C 13.378906 -14.019531 13.4375 -13.835938 13.4375 -13.578125 L 13.4375 -12.046875 C 13.4375 -11.441406 13.382812 -10.988281 13.28125 -10.6875 C 13.175781 -10.382812 12.976562 -10.023438 12.6875 -9.609375 L 11.078125 -7.421875 L 12.6875 -5.28125 C 12.988281 -4.875 13.1875 -4.515625 13.28125 -4.203125 C 13.382812 -3.898438 13.4375 -3.445312 13.4375 -2.84375 L 13.4375 -0.71875 C 13.4375 -0.46875 13.378906 -0.285156 13.265625 -0.171875 C 13.160156 -0.0546875 12.984375 0 12.734375 0 L 9.71875 0 C 9.457031 0 9.269531 -0.0546875 9.15625 -0.171875 C 9.050781 -0.285156 9 -0.46875 9 -0.71875 L 9 -2.6875 C 9 -2.8125 8.988281 -2.945312 8.96875 -3.09375 C 8.957031 -3.238281 8.90625 -3.378906 8.8125 -3.515625 L 7.9375 -4.765625 C 7.863281 -4.878906 7.789062 -4.960938 7.71875 -5.015625 C 7.65625 -5.078125 7.570312 -5.109375 7.46875 -5.109375 L 7.1875 -5.109375 C 7.082031 -5.109375 6.992188 -5.078125 6.921875 -5.015625 C 6.859375 -4.960938 6.789062 -4.878906 6.71875 -4.765625 L 5.8125 -3.515625 C 5.726562 -3.378906 5.675781 -3.238281 5.65625 -3.09375 C 5.644531 -2.945312 5.640625 -2.8125 5.640625 -2.6875 Z M 5.640625 -0.71875 "/></g></g></g><g fill="#ffffff" fill-opacity="1"><g transform="translate(15.41631, 29.015878)"><g><path d="M 1.765625 0 C 1.515625 0 1.332031 -0.0546875 1.21875 -0.171875 C 1.101562 -0.285156 1.046875 -0.46875 1.046875 -0.71875 L 1.046875 -3.078125 C 1.046875 -3.328125 1.101562 -3.507812 1.21875 -3.625 C 1.332031 -3.738281 1.515625 -3.796875 1.765625 -3.796875 L 3.734375 -3.796875 L 3.734375 -10.46875 L 1.765625 -10.46875 C 1.515625 -10.46875 1.332031 -10.519531 1.21875 -10.625 C 1.101562 -10.738281 1.046875 -10.925781 1.046875 -11.1875 L 1.046875 -13.578125 C 1.046875 -13.835938 1.101562 -14.019531 1.21875 -14.125 C 1.332031 -14.238281 1.515625 -14.296875 1.765625 -14.296875 L 10.234375 -14.296875 C 10.484375 -14.296875 10.660156 -14.238281 10.765625 -14.125 C 10.878906 -14.019531 10.9375 -13.835938 10.9375 -13.578125 L 10.9375 -11.1875 C 10.9375 -10.925781 10.878906 -10.738281 10.765625 -10.625 C 10.660156 -10.519531 10.484375 -10.46875 10.234375 -10.46875 L 8.296875 -10.46875 L 8.296875 -3.796875 L 10.234375 -3.796875 C 10.484375 -3.796875 10.660156 -3.738281 10.765625 -3.625 C 10.878906 -3.507812 10.9375 -3.328125 10.9375 -3.078125 L 10.9375 -0.71875 C 10.9375 -0.46875 10.878906 -0.285156 10.765625 -0.171875 C 10.660156 -0.0546875 10.484375 0 10.234375 0 Z M 1.765625 0 "/></g></g></g><g fill="#ffffff" fill-opacity="1"><g transform="translate(26.731558, 29.015878)"><g><path d="M 12.1875 0 L 2.078125 0 C 1.828125 0 1.644531 -0.0546875 1.53125 -0.171875 C 1.425781 -0.285156 1.375 -0.46875 1.375 -0.71875 L 1.375 -13.578125 C 1.375 -13.835938 1.425781 -14.019531 1.53125 -14.125 C 1.644531 -14.238281 1.828125 -14.296875 2.078125 -14.296875 L 5.15625 -14.296875 C 5.414062 -14.296875 5.597656 -14.238281 5.703125 -14.125 C 5.816406 -14.019531 5.875 -13.835938 5.875 -13.578125 L 5.875 -3.75 L 8.59375 -3.75 L 8.59375 -6.96875 C 8.59375 -7.21875 8.648438 -7.398438 8.765625 -7.515625 C 8.878906 -7.628906 9.0625 -7.6875 9.3125 -7.6875 L 12.1875 -7.6875 C 12.445312 -7.6875 12.628906 -7.628906 12.734375 -7.515625 C 12.847656 -7.398438 12.90625 -7.21875 12.90625 -6.96875 L 12.90625 -0.71875 C 12.90625 -0.46875 12.847656 -0.285156 12.734375 -0.171875 C 12.628906 -0.0546875 12.445312 0 12.1875 0 Z M 12.1875 0 "/></g></g></g><g fill="#ffffff" fill-opacity="1"><g transform="translate(39.833446, 29.015878)"><g><path d="M 5.15625 0 L 2.078125 0 C 1.828125 0 1.644531 -0.0546875 1.53125 -0.171875 C 1.425781 -0.285156 1.375 -0.46875 1.375 -0.71875 L 1.375 -13.578125 C 1.375 -13.835938 1.425781 -14.019531 1.53125 -14.125 C 1.644531 -14.238281 1.828125 -14.296875 2.078125 -14.296875 L 10.9375 -14.296875 C 11.1875 -14.296875 11.367188 -14.238281 11.484375 -14.125 C 11.597656 -14.019531 11.65625 -13.835938 11.65625 -13.578125 L 11.65625 -11.21875 C 11.65625 -10.96875 11.597656 -10.785156 11.484375 -10.671875 C 11.367188 -10.554688 11.1875 -10.5 10.9375 -10.5 L 5.875 -10.5 L 5.875 -8.4375 L 9.328125 -8.4375 C 9.585938 -8.4375 9.769531 -8.378906 9.875 -8.265625 C 9.988281 -8.160156 10.046875 -7.976562 10.046875 -7.71875 L 10.046875 -5.34375 C 10.046875 -5.09375 9.988281 -4.910156 9.875 -4.796875 C 9.769531 -4.679688 9.585938 -4.625 9.328125 -4.625 L 5.875 -4.625 L 5.875 -0.71875 C 5.875 -0.46875 5.816406 -0.285156 5.703125 -0.171875 C 5.597656 -0.0546875 5.414062 0 5.15625 0 Z M 5.15625 0 "/></g></g></g><g fill="#ffffff" fill-opacity="1"><g transform="translate(51.40677, 29.015878)"><g><path d="M 8.125 0 L 4.90625 0 C 4.65625 0 4.472656 -0.0546875 4.359375 -0.171875 C 4.242188 -0.285156 4.1875 -0.46875 4.1875 -0.71875 L 4.1875 -10.46875 L 1.265625 -10.46875 C 1.015625 -10.46875 0.832031 -10.519531 0.71875 -10.625 C 0.613281 -10.738281 0.5625 -10.925781 0.5625 -11.1875 L 0.5625 -13.578125 C 0.5625 -13.835938 0.613281 -14.019531 0.71875 -14.125 C 0.832031 -14.238281 1.015625 -14.296875 1.265625 -14.296875 L 11.75 -14.296875 C 12.007812 -14.296875 12.191406 -14.238281 12.296875 -14.125 C 12.410156 -14.019531 12.46875 -13.835938 12.46875 -13.578125 L 12.46875 -11.1875 C 12.46875 -10.925781 12.410156 -10.738281 12.296875 -10.625 C 12.191406 -10.519531 12.007812 -10.46875 11.75 -10.46875 L 8.84375 -10.46875 L 8.84375 -0.71875 C 8.84375 -0.46875 8.785156 -0.285156 8.671875 -0.171875 C 8.554688 -0.0546875 8.375 0 8.125 0 Z M 8.125 0 "/></g></g></g><g fill="#ffffff" fill-opacity="1"><g transform="translate(63.734453, 29.015878)"><g><path d="M 11.296875 0 L 2.078125 0 C 1.828125 0 1.644531 -0.0546875 1.53125 -0.171875 C 1.425781 -0.285156 1.375 -0.46875 1.375 -0.71875 L 1.375 -13.578125 C 1.375 -13.835938 1.425781 -14.019531 1.53125 -14.125 C 1.644531 -14.238281 1.828125 -14.296875 2.078125 -14.296875 L 11.296875 -14.296875 C 11.546875 -14.296875 11.726562 -14.238281 11.84375 -14.125 C 11.957031 -14.019531 12.015625 -13.835938 12.015625 -13.578125 L 12.015625 -11.265625 C 12.015625 -11.015625 11.957031 -10.832031 11.84375 -10.71875 C 11.726562 -10.601562 11.546875 -10.546875 11.296875 -10.546875 L 5.8125 -10.546875 L 5.8125 -9.015625 L 9.6875 -9.015625 C 9.9375 -9.015625 10.117188 -8.957031 10.234375 -8.84375 C 10.347656 -8.726562 10.40625 -8.546875 10.40625 -8.296875 L 10.40625 -6.171875 C 10.40625 -5.921875 10.347656 -5.738281 10.234375 -5.625 C 10.117188 -5.519531 9.9375 -5.46875 9.6875 -5.46875 L 5.8125 -5.46875 L 5.8125 -3.75 L 11.296875 -3.75 C 11.546875 -3.75 11.726562 -3.691406 11.84375 -3.578125 C 11.957031 -3.472656 12.015625 -3.289062 12.015625 -3.03125 L 12.015625 -0.71875 C 12.015625 -0.46875 11.957031 -0.285156 11.84375 -0.171875 C 11.726562 -0.0546875 11.546875 0 11.296875 0 Z M 11.296875 0 "/></g></g></g><g fill="#ffffff" fill-opacity="1"><g transform="translate(76.022426, 29.015878)"><g><path d="M 5.0625 0 L 2.078125 0 C 1.828125 0 1.644531 -0.0546875 1.53125 -0.171875 C 1.425781 -0.285156 1.375 -0.46875 1.375 -0.71875 L 1.375 -13.578125 C 1.375 -13.835938 1.425781 -14.019531 1.53125 -14.125 C 1.644531 -14.238281 1.828125 -14.296875 2.078125 -14.296875 L 4.15625 -14.296875 C 4.40625 -14.296875 4.617188 -14.253906 4.796875 -14.171875 C 4.972656 -14.097656 5.148438 -13.960938 5.328125 -13.765625 L 9.171875 -9.359375 L 9.171875 -13.578125 C 9.171875 -13.835938 9.226562 -14.019531 9.34375 -14.125 C 9.457031 -14.238281 9.640625 -14.296875 9.890625 -14.296875 L 12.875 -14.296875 C 13.125 -14.296875 13.300781 -14.238281 13.40625 -14.125 C 13.519531 -14.019531 13.578125 -13.835938 13.578125 -13.578125 L 13.578125 -0.71875 C 13.578125 -0.46875 13.519531 -0.285156 13.40625 -0.171875 C 13.300781 -0.0546875 13.125 0 12.875 0 L 9.890625 0 C 9.640625 0 9.457031 -0.0546875 9.34375 -0.171875 C 9.226562 -0.285156 9.171875 -0.46875 9.171875 -0.71875 L 9.171875 -3.15625 L 5.78125 -7.265625 L 5.78125 -0.71875 C 5.78125 -0.46875 5.722656 -0.285156 5.609375 -0.171875 C 5.492188 -0.0546875 5.3125 0 5.0625 0 Z M 5.0625 0 "/></g></g></g><g clip-path="url(#0a04d68384)"><path fill="#ffffff" d="M 92.773438 7.828125 C 90.996094 7.828125 89.550781 9.273438 89.550781 11.050781 C 89.550781 12.824219 90.996094 14.273438 92.773438 14.273438 C 94.550781 14.273438 95.996094 12.824219 95.996094 11.050781 C 95.996094 9.273438 94.550781 7.828125 92.773438 7.828125 Z M 92.773438 13.800781 C 91.257812 13.800781 90.023438 12.566406 90.023438 11.050781 C 90.023438 9.53125 91.257812 8.296875 92.773438 8.296875 C 94.289062 8.296875 95.523438 9.53125 95.523438 11.050781 C 95.523438 12.566406 94.289062 13.800781 92.773438 13.800781 Z M 92.773438 8.488281 C 91.359375 8.488281 90.210938 9.636719 90.210938 11.050781 C 90.210938 12.460938 91.359375 13.609375 92.773438 13.609375 C 94.183594 13.609375 95.335938 12.460938 95.335938 11.050781 C 95.335938 9.636719 94.183594 8.488281 92.773438 8.488281 Z M 94.375 11.296875 L 92.265625 12.617188 C 92.214844 12.644531 92.164062 12.660156 92.109375 12.660156 C 92.058594 12.660156 92.011719 12.648438 91.964844 12.625 C 91.875 12.570312 91.816406 12.472656 91.816406 12.367188 L 91.816406 9.730469 C 91.816406 9.625 91.875 9.527344 91.964844 9.472656 C 92.058594 9.421875 92.171875 9.425781 92.265625 9.480469 L 94.375 10.800781 C 94.457031 10.855469 94.511719 10.949219 94.511719 11.050781 C 94.511719 11.148438 94.457031 11.242188 94.375 11.296875 Z M 94.375 11.296875 " fill-opacity="1" fill-rule="nonzero"/></g></svg>